<svg width="202" height="83" viewBox="0 0 202 83" fill="none" xmlns="http://www.w3.org/2000/svg">
<path d="M51.3193 62.3456L47.2326 64.8078C46.9225 64.9965 46.9225 65.4441 47.2326 65.6328L51.3193 68.095C51.4472 68.1718 51.6007 68.1846 51.7382 68.1334L58.1751 65.6712C58.5876 65.5145 58.5876 64.9293 58.1751 64.7726L51.7382 62.3104C51.6007 62.256 51.444 62.272 51.3193 62.3488V62.3456Z" fill="#FBFCFF"/>
<path d="M77.3645 62.1345L70.9275 64.5967C70.515 64.7534 70.515 65.3386 70.9275 65.4953L77.3645 67.9575C77.502 68.0118 77.6587 67.9958 77.7834 67.9191L81.87 65.4569C82.1802 65.2682 82.1802 64.8205 81.87 64.6319L77.7834 62.1697C77.6555 62.0929 77.502 62.0801 77.3645 62.1313V62.1345Z" fill="#FBFCFF"/>
<path d="M67.4547 51.8188L64.9925 47.7321C64.8039 47.422 64.3562 47.422 64.1675 47.7321L61.7053 51.8188C61.6286 51.9467 61.6158 52.1002 61.6669 52.2377L64.1291 58.6746C64.2858 59.0871 64.871 59.0871 65.0277 58.6746L67.4899 52.2377C67.5443 52.1002 67.5283 51.9435 67.4516 51.8188H67.4547Z" fill="#FBFCFF"/>
<path d="M61.7054 78.1809L64.1677 82.2675C64.3563 82.5777 64.804 82.5777 64.9927 82.2675L67.4549 78.1809C67.5316 78.0529 67.5444 77.8995 67.4933 77.762L65.031 71.325C64.8744 70.9125 64.2892 70.9125 64.1325 71.325L61.6703 77.762C61.6159 77.8995 61.6319 78.0561 61.7086 78.1809H61.7054Z" fill="#FBFCFF"/>
<path d="M65.4149 64.6196L76.1016 59.1131C76.2615 59.03 76.3638 58.8669 76.3638 58.6847V53.725C76.3638 53.4596 76.1496 53.2422 75.881 53.2422H70.9245C70.7455 53.2422 70.5792 53.3445 70.496 53.5044L65.012 64.2135C64.9289 64.3733 64.7658 64.4757 64.5835 64.4757C64.4044 64.4757 64.2382 64.3733 64.155 64.2135L58.671 53.5044C58.5878 53.3445 58.4248 53.2422 58.2425 53.2422H53.2861C53.0207 53.2422 52.8032 53.4564 52.8032 53.725V58.6847C52.8032 58.8637 52.9024 59.03 53.0654 59.1131L63.7521 64.6196C63.912 64.7027 64.0111 64.8658 64.0111 65.0481V65.0545C64.0111 65.2335 63.912 65.3998 63.7521 65.4829L53.0654 70.9894C52.9055 71.0725 52.8032 71.2356 52.8032 71.4179V76.3775C52.8032 76.6429 53.0175 76.8603 53.2861 76.8603H58.2425C58.4216 76.8603 58.5878 76.758 58.671 76.5981L64.155 65.8891C64.2382 65.7292 64.4012 65.6268 64.5835 65.6268C64.7626 65.6268 64.9289 65.7292 65.012 65.8891L70.496 76.5981C70.5792 76.758 70.7423 76.8603 70.9245 76.8603H75.881C76.1464 76.8603 76.3638 76.6461 76.3638 76.3775V71.4179C76.3638 71.2388 76.2647 71.0725 76.1016 70.9894L65.4149 65.4829C65.255 65.3998 65.1559 65.2367 65.1559 65.0545V65.0481C65.1559 64.869 65.255 64.7027 65.4149 64.6196Z" fill="#FBFCFF"/>
<path d="M96.0308 58.6227C96.3546 59.0613 96.5153 59.5814 96.5153 60.1883C96.5153 60.7366 96.3827 61.2287 96.12 61.6648C95.8574 62.1034 95.4825 62.4425 95.0006 62.6873C94.5187 62.9321 93.9577 63.0519 93.3227 63.0519H89.1025V53.2065H92.5475C93.134 53.2065 93.6517 53.3187 94.0979 53.5431C94.5442 53.7675 94.8909 54.0786 95.1357 54.4764C95.3805 54.8742 95.5004 55.3256 95.5004 55.833C95.5004 56.2104 95.4315 56.5572 95.2913 56.8708C95.151 57.1845 94.947 57.4548 94.6793 57.6843C95.2556 57.873 95.7069 58.1866 96.0282 58.6252L96.0308 58.6227ZM90.6529 54.5937V57.2482H92.3971C92.8841 57.2482 93.259 57.1258 93.5242 56.8836C93.7868 56.6388 93.9194 56.3149 93.9194 55.907C93.9194 55.499 93.7868 55.1777 93.5242 54.9456C93.2615 54.711 92.8841 54.5937 92.3971 54.5937H90.6529ZM94.4651 61.2542C94.7686 60.9814 94.919 60.6116 94.919 60.1424C94.919 59.6732 94.766 59.3009 94.4651 59.023C94.1617 58.7451 93.7358 58.6048 93.1901 58.6048H90.6555V61.6622H93.1901C93.7358 61.6622 94.1617 61.5245 94.4651 61.2517V61.2542Z" fill="#FBFCFF"/>
<path d="M99.8125 53.2065H106.287V54.6243H101.393V57.1462H105.078V58.5181H101.393V61.6367H106.465V63.0545H99.8125V53.2065Z" fill="#FBFCFF"/>
<path d="M113.969 59.0842V63.0519H112.388V59.0842L108.987 53.2065H110.746L113.179 57.4879L115.624 53.2065H117.369L113.967 59.0842H113.969Z" fill="#FBFCFF"/>
<path d="M122.045 62.5442C121.255 62.098 120.63 61.486 120.174 60.7083C119.717 59.9331 119.488 59.0737 119.488 58.1277C119.488 57.1817 119.72 56.3223 120.181 55.5471C120.643 54.772 121.268 54.16 122.053 53.7112C122.838 53.2649 123.703 53.0405 124.649 53.0405C125.595 53.0405 126.449 53.2649 127.245 53.7112C128.04 54.1574 128.67 54.7694 129.132 55.5471C129.593 56.3223 129.825 57.1842 129.825 58.1277C129.825 59.0712 129.593 59.9331 129.132 60.7083C128.67 61.4834 128.04 62.0954 127.245 62.5442C126.449 62.9905 125.585 63.2149 124.649 63.2149C123.713 63.2149 122.836 62.9905 122.045 62.5442ZM126.47 61.2998C127.008 60.9862 127.428 60.5527 127.737 59.9943C128.045 59.4384 128.198 58.8111 128.198 58.1149C128.198 57.4188 128.043 56.8221 127.737 56.2662C127.428 55.7103 127.005 55.2743 126.47 54.9606C125.934 54.647 125.33 54.4915 124.664 54.4915C123.999 54.4915 123.382 54.647 122.844 54.9606C122.306 55.2743 121.887 55.7052 121.584 56.2586C121.28 56.8119 121.13 57.429 121.13 58.1149C121.13 58.8009 121.28 59.4384 121.584 59.9943C121.887 60.5502 122.308 60.9862 122.844 61.2998C123.382 61.6135 123.986 61.769 124.664 61.769C125.343 61.769 125.932 61.6135 126.47 61.2998Z" fill="#FBFCFF"/>
<path d="M141.326 53.2062V63.2148H140.787L134.79 56.3834V63.0516H133.209V53.043H133.76L139.742 59.8463V53.2062H141.323H141.326Z" fill="#FBFCFF"/>
<path d="M145.309 53.2065H148.397C149.47 53.2065 150.411 53.4131 151.217 53.8262C152.023 54.2393 152.647 54.8156 153.089 55.5576C153.53 56.2996 153.752 57.1513 153.752 58.1152C153.752 59.0791 153.53 59.9206 153.089 60.6652C152.645 61.4098 152.02 61.9963 151.209 62.417C150.398 62.8403 149.462 63.0519 148.397 63.0519H145.309V53.2065ZM148.381 61.6342C149.136 61.6342 149.799 61.4863 150.365 61.1879C150.931 60.8896 151.367 60.4714 151.671 59.9359C151.974 59.3978 152.125 58.7935 152.125 58.1152C152.125 57.4369 151.972 56.8096 151.671 56.2869C151.367 55.7642 150.934 55.3587 150.373 55.0706C149.812 54.7824 149.146 54.6371 148.381 54.6371H146.89V61.6342H148.381Z" fill="#FBFCFF"/>
<path d="M89.1025 66.9507H95.5769V68.3685H90.6835V70.8904H94.3682V72.2623H90.6835V75.3809H95.7554V76.7986H89.1025V66.9532V66.9507Z" fill="#FBFCFF"/>
<path d="M104.749 76.7961L102.362 73.1267L99.9906 76.7961H98.1699L101.498 71.7701L98.379 66.9507H100.2L102.377 70.4263L104.524 66.9507H106.33L103.272 71.7701L106.554 76.7961H104.749Z" fill="#FBFCFF"/>
<path d="M109.627 66.9503H113.222C113.878 66.9503 114.462 67.0778 114.967 67.3302C115.474 67.5827 115.867 67.9397 116.145 68.3961C116.423 68.8526 116.563 69.3753 116.563 69.9618C116.563 70.5483 116.423 71.071 116.145 71.5275C115.867 71.9839 115.474 72.3435 114.967 72.601C114.459 72.8586 113.878 72.9886 113.222 72.9886H111.208V76.7932H109.627V66.9478V66.9503ZM113.192 71.5887C113.748 71.5887 114.179 71.4433 114.482 71.1475C114.786 70.8543 114.936 70.4641 114.936 69.9771C114.936 69.4901 114.786 69.0974 114.482 68.799C114.179 68.5007 113.748 68.3528 113.192 68.3528H111.208V71.5887H113.192Z" fill="#FBFCFF"/>
<path d="M119.816 66.9507H126.291V68.3685H121.397V70.8904H125.082V72.2623H121.397V75.3809H126.469V76.7986H119.816V66.9532V66.9507Z" fill="#FBFCFF"/>
<path d="M135.986 76.7961L133.181 72.9915H131.376V76.7961H129.795V66.9507H133.39C134.046 66.9507 134.63 67.0782 135.135 67.3306C135.642 67.5831 136.035 67.9401 136.313 68.3965C136.591 68.853 136.731 69.3757 136.731 69.9622C136.731 70.6099 136.563 71.176 136.223 71.663C135.884 72.1501 135.423 72.5096 134.836 72.7365L137.789 76.7935H135.984L135.986 76.7961ZM131.376 71.5891H133.36C133.905 71.5891 134.334 71.4412 134.642 71.1428C134.951 70.8445 135.104 70.4569 135.104 69.98C135.104 69.5032 134.948 69.1003 134.642 68.802C134.334 68.5036 133.905 68.3557 133.36 68.3557H131.376V71.5916V71.5891Z" fill="#FBFCFF"/>
<path d="M140.698 66.9507H142.279V76.7961H140.698V66.9507Z" fill="#FBFCFF"/>
<path d="M146.247 66.9507H152.721V68.3685H147.828V70.8904H151.513V72.2623H147.828V75.3809H152.9V76.7986H146.247V66.9532V66.9507Z" fill="#FBFCFF"/>
<path d="M164.342 66.9508V76.9594H163.804L157.806 70.128V76.7962H156.225V66.7876H156.776L162.758 73.5909V66.9533H164.339L164.342 66.9508Z" fill="#FBFCFF"/>
<path d="M170.301 76.2889C169.51 75.8401 168.883 75.2306 168.422 74.4529C167.96 73.6777 167.728 72.8158 167.728 71.8723C167.728 70.9288 167.96 70.067 168.422 69.2918C168.883 68.5166 169.51 67.9046 170.301 67.4558C171.091 67.007 171.958 66.7852 172.904 66.7852C173.85 66.7852 174.633 66.9892 175.373 67.3971C176.112 67.8051 176.699 68.3559 177.125 69.0521L175.931 69.9318C175.582 69.3861 175.156 68.9654 174.649 68.6721C174.141 68.3789 173.565 68.231 172.917 68.231C172.27 68.231 171.647 68.3865 171.104 68.7002C170.561 69.0138 170.138 69.4499 169.829 70.0058C169.521 70.5616 169.368 71.1838 169.368 71.8698C169.368 72.5557 169.521 73.1779 169.829 73.7338C170.138 74.2897 170.564 74.7257 171.104 75.0394C171.647 75.353 172.249 75.5086 172.917 75.5086C173.585 75.5086 174.141 75.3607 174.649 75.0674C175.156 74.7742 175.584 74.3534 175.931 73.8077L177.125 74.6875C176.706 75.3836 176.128 75.9344 175.386 76.3424C174.644 76.7504 173.817 76.9544 172.902 76.9544C171.986 76.9544 171.089 76.73 170.298 76.2838L170.301 76.2889Z" fill="#FBFCFF"/>
<path d="M180.511 66.9507H186.985V68.3685H182.092V70.8904H185.776V72.2623H182.092V75.3809H187.164V76.7986H180.511V66.9532V66.9507Z" fill="#FBFCFF"/>
<path d="M191.325 76.3933C190.678 76.0159 190.168 75.4932 189.788 74.8276L190.907 73.9785C191.236 74.4553 191.606 74.8353 192.019 75.1209C192.432 75.4039 192.922 75.5467 193.488 75.5467C193.995 75.5467 194.406 75.4218 194.719 75.1744C195.033 74.9271 195.188 74.593 195.188 74.1748C195.188 73.828 195.076 73.5526 194.852 73.3537C194.627 73.1548 194.258 72.9356 193.74 72.6984L192.651 72.191C191.935 71.862 191.374 71.4897 190.966 71.0715C190.558 70.6533 190.354 70.1178 190.354 69.46C190.354 68.9321 190.494 68.4655 190.772 68.0575C191.05 67.6495 191.425 67.3358 191.899 67.1165C192.371 66.8972 192.891 66.7876 193.457 66.7876C194.153 66.7876 194.78 66.9482 195.336 67.2721C195.892 67.5959 196.326 68.0192 196.634 68.5471L195.53 69.3962C195.273 69.0086 194.967 68.7128 194.612 68.5088C194.26 68.3048 193.873 68.2028 193.457 68.2028C193.041 68.2028 192.687 68.3048 192.399 68.5088C192.111 68.7128 191.965 69.0086 191.965 69.3962C191.965 69.6359 192.019 69.8348 192.128 69.9929C192.238 70.151 192.381 70.2836 192.562 70.3881C192.743 70.4927 193.001 70.6304 193.337 70.7987L194.441 71.3061C195.237 71.6733 195.828 72.0711 196.216 72.4995C196.604 72.9279 196.797 73.4634 196.797 74.1111C196.797 74.6772 196.655 75.177 196.372 75.6105C196.089 76.044 195.696 76.3754 195.194 76.61C194.691 76.8446 194.128 76.9594 193.5 76.9594C192.695 76.9594 191.968 76.7707 191.323 76.3933H191.325Z" fill="#FBFCFF"/>
</svg>
