<svg width="36" height="36" viewBox="0 0 36 36" fill="none" xmlns="http://www.w3.org/2000/svg">
<path d="M4.31928 15.3456L0.232632 17.8078C-0.077544 17.9965 -0.077544 18.4441 0.232632 18.6328L4.31928 21.095C4.44719 21.1718 4.60068 21.1846 4.73818 21.1334L11.1751 18.6712C11.5876 18.5145 11.5876 17.9293 11.1751 17.7726L4.73818 15.3104C4.60068 15.256 4.44399 15.272 4.31928 15.3488V15.3456Z" fill="#FBFCFF"/>
<path d="M30.3645 15.1345L23.9275 17.5967C23.515 17.7534 23.515 18.3386 23.9275 18.4953L30.3645 20.9575C30.502 21.0118 30.6587 20.9958 30.7834 20.9191L34.87 18.4569C35.1802 18.2682 35.1802 17.8205 34.87 17.6319L30.7834 15.1697C30.6555 15.0929 30.502 15.0801 30.3645 15.1313V15.1345Z" fill="#FBFCFF"/>
<path d="M20.4547 4.81879L17.9925 0.732144C17.8039 0.421968 17.3562 0.421968 17.1675 0.732144L14.7053 4.81879C14.6286 4.9467 14.6158 5.10019 14.6669 5.23769L17.1291 11.6746C17.2858 12.0871 17.871 12.0871 18.0277 11.6746L20.4899 5.23769C20.5443 5.10019 20.5283 4.9435 20.4516 4.81879H20.4547Z" fill="#FBFCFF"/>
<path d="M14.7054 31.1809L17.1677 35.2675C17.3563 35.5777 17.804 35.5777 17.9927 35.2675L20.4549 31.1809C20.5316 31.0529 20.5444 30.8995 20.4933 30.762L18.031 24.325C17.8744 23.9125 17.2892 23.9125 17.1325 24.325L14.6703 30.762C14.6159 30.8995 14.6319 31.0561 14.7086 31.1809H14.7054Z" fill="#FBFCFF"/>
<path d="M18.4149 17.6196L29.1016 12.1131C29.2615 12.03 29.3638 11.8669 29.3638 11.6847V6.72504C29.3638 6.45963 29.1496 6.24219 28.881 6.24219H23.9245C23.7455 6.24219 23.5792 6.34451 23.496 6.5044L18.012 17.2135C17.9289 17.3733 17.7658 17.4757 17.5835 17.4757C17.4044 17.4757 17.2382 17.3733 17.155 17.2135L11.671 6.5044C11.5878 6.34451 11.4248 6.24219 11.2425 6.24219H6.28607C6.02067 6.24219 5.80322 6.45643 5.80322 6.72504V11.6847C5.80322 11.8637 5.90235 12.03 6.06543 12.1131L16.7521 17.6196C16.912 17.7027 17.0111 17.8658 17.0111 18.0481V18.0545C17.0111 18.2335 16.912 18.3998 16.7521 18.4829L6.06543 23.9894C5.90555 24.0725 5.80322 24.2356 5.80322 24.4179V29.3775C5.80322 29.6429 6.01747 29.8603 6.28607 29.8603H11.2425C11.4216 29.8603 11.5878 29.758 11.671 29.5981L17.155 18.8891C17.2382 18.7292 17.4012 18.6268 17.5835 18.6268C17.7626 18.6268 17.9289 18.7292 18.012 18.8891L23.496 29.5981C23.5792 29.758 23.7423 29.8603 23.9245 29.8603H28.881C29.1464 29.8603 29.3638 29.6461 29.3638 29.3775V24.4179C29.3638 24.2388 29.2647 24.0725 29.1016 23.9894L18.4149 18.4829C18.255 18.3998 18.1559 18.2367 18.1559 18.0545V18.0481C18.1559 17.869 18.255 17.7027 18.4149 17.6196Z" fill="#FBFCFF"/>
</svg>
