<svg width="19" height="13" viewBox="0 0 19 13" fill="none" xmlns="http://www.w3.org/2000/svg">
<path d="M11.9448 1.92676H6.85352V11.0737H11.9448V1.92676Z" fill="#FF5A00"/>
<path d="M7.19252 6.50017C7.19252 4.64178 8.06617 2.9924 9.40677 1.9267C8.42015 1.15096 7.17558 0.682129 5.81804 0.682129C2.60211 0.682129 0 3.28424 0 6.50017C0 9.71609 2.60211 12.3182 5.81804 12.3182C7.17558 12.3182 8.42015 11.8494 9.40677 11.0736C8.06429 10.023 7.19252 8.35855 7.19252 6.50017Z" fill="#EB001B"/>
<path d="M18.8135 6.50017C18.8135 9.71609 16.2114 12.3182 12.9955 12.3182C11.6379 12.3182 10.3934 11.8494 9.40674 11.0736C10.7643 10.0061 11.621 8.35855 11.621 6.50017C11.621 4.64178 10.7473 2.9924 9.40674 1.9267C10.3915 1.15096 11.636 0.682129 12.9936 0.682129C16.2114 0.682129 18.8135 3.30119 18.8135 6.50017Z" fill="#F79E1B"/>
</svg>
