<?xml version="1.0" encoding="UTF-8" standalone="no"?>
<svg
   width="149.79698"
   height="35.000626"
   viewBox="0 0 149.79698 35.000626"
   fill="none"
   version="1.1"
   id="svg22"
   sodipodi:docname="White1Logo.svg"
   inkscape:version="1.4.2 (f4327f4, 2025-05-13)"
   xmlns:inkscape="http://www.inkscape.org/namespaces/inkscape"
   xmlns:sodipodi="http://sodipodi.sourceforge.net/DTD/sodipodi-0.dtd"
   xmlns="http://www.w3.org/2000/svg"
   xmlns:svg="http://www.w3.org/2000/svg">
  <defs
     id="defs22" />
  <sodipodi:namedview
     id="namedview22"
     pagecolor="#ffffff"
     bordercolor="#000000"
     borderopacity="0.25"
     inkscape:showpageshadow="2"
     inkscape:pageopacity="0.0"
     inkscape:pagecheckerboard="0"
     inkscape:deskcolor="#d1d1d1"
     inkscape:zoom="8.7524752"
     inkscape:cx="54.041855"
     inkscape:cy="12.28224"
     inkscape:window-width="1920"
     inkscape:window-height="974"
     inkscape:window-x="-11"
     inkscape:window-y="-11"
     inkscape:window-maximized="1"
     inkscape:current-layer="svg22" />
  <path
     d="m 4.319275,14.846075 -4.0867,2.4622 c -0.3101,0.1887 -0.3101,0.6363 0,0.825 l 4.0867,2.4622 c 0.1279,0.0768 0.2814,0.0896 0.4189,0.0384 l 6.4369,-2.4622 c 0.4125,-0.1567 0.4125,-0.7419 0,-0.8986 l -6.4369,-2.4622 c -0.1375,-0.0544 -0.2942,-0.0384 -0.4189,0.0384 z"
     fill="#fbfcff"
     id="path1" />
  <path
     d="m 30.364475,14.634975 -6.437,2.4622 c -0.4125,0.1567 -0.4125,0.7419 0,0.8986 l 6.437,2.4622 c 0.1375,0.0543 0.2942,0.0383 0.4189,-0.0384 l 4.0866,-2.4622 c 0.3102,-0.1887 0.3102,-0.6364 0,-0.825 l -4.0866,-2.4622 c -0.1279,-0.0768 -0.2814,-0.0896 -0.4189,-0.0384 z"
     fill="#fbfcff"
     id="path2" />
  <path
     d="m 20.454675,4.319275 -2.4622,-4.0867 c -0.1886,-0.3101 -0.6363,-0.3101 -0.825,0 l -2.4622,4.0867 c -0.0767,0.1279 -0.0895,0.2814 -0.0384,0.4189 l 2.4622,6.4369 c 0.1567,0.4125 0.7419,0.4125 0.8986,0 l 2.4622,-6.4369 c 0.0544,-0.1375 0.0384,-0.2942 -0.0383,-0.4189 z"
     fill="#fbfcff"
     id="path3" />
  <path
     d="m 14.705375,30.681375 2.4623,4.0866 c 0.1886,0.3102 0.6363,0.3102 0.825,0 l 2.4622,-4.0866 c 0.0767,-0.128 0.0895,-0.2814 0.0384,-0.4189 l -2.4623,-6.437 c -0.1566,-0.4125 -0.7418,-0.4125 -0.8985,0 l -2.4622,6.437 c -0.0544,0.1375 -0.0384,0.2941 0.0383,0.4189 z"
     fill="#fbfcff"
     id="path4" />
  <path
     d="m 18.414875,17.120075 10.6867,-5.5065 c 0.1599,-0.0831 0.2622,-0.2462 0.2622,-0.4284 v -4.9597 c 0,-0.2654 -0.2142,-0.4828 -0.4828,-0.4828 h -4.9565 c -0.179,0 -0.3453,0.1023 -0.4285,0.2622 l -5.484,10.7091 c -0.0831,0.1598 -0.2462,0.2622 -0.4285,0.2622 -0.1791,0 -0.3453,-0.1024 -0.4285,-0.2622 l -5.484,-10.7091 c -0.0832,-0.1599 -0.2462,-0.2622 -0.4285,-0.2622 h -4.9564 c -0.2654,0 -0.4829,0.2142 -0.4829,0.4828 v 4.9597 c 0,0.179 0.0992,0.3453 0.2622,0.4284 l 10.6867,5.5065 c 0.1599,0.0831 0.259,0.2462 0.259,0.4285 v 0.0064 c 0,0.179 -0.0991,0.3453 -0.259,0.4284 l -10.6867,5.5065 c -0.1599,0.0831 -0.2622,0.2462 -0.2622,0.4285 v 4.9596 c 0,0.2654 0.2143,0.4828 0.4829,0.4828 h 4.9564 c 0.1791,0 0.3453,-0.1023 0.4285,-0.2622 l 5.484,-10.709 c 0.0832,-0.1599 0.2462,-0.2623 0.4285,-0.2623 0.1791,0 0.3454,0.1024 0.4285,0.2623 l 5.484,10.709 c 0.0832,0.1599 0.2463,0.2622 0.4285,0.2622 h 4.9565 c 0.2654,0 0.4828,-0.2142 0.4828,-0.4828 v -4.9596 c 0,-0.1791 -0.0991,-0.3454 -0.2622,-0.4285 l -10.6867,-5.5065 c -0.1599,-0.0831 -0.259,-0.2462 -0.259,-0.4284 v -0.0064 c 0,-0.1791 0.0991,-0.3454 0.259,-0.4285 z"
     fill="#fbfcff"
     id="path5" />
  <path
     d="m 49.030775,11.123175 c 0.3238,0.4386 0.4845,0.9587 0.4845,1.5656 0,0.5483 -0.1326,1.0404 -0.3953,1.4765 -0.2626,0.4386 -0.6375,0.7777 -1.1194,1.0225 -0.4819,0.2448 -1.0429,0.3646 -1.6779,0.3646 h -4.2202 v -9.8454 h 3.445 c 0.5865,0 1.1042,0.1122 1.5504,0.3366 0.4463,0.2244 0.793,0.5355 1.0378,0.9333 0.2448,0.3978 0.3647,0.8492 0.3647,1.3566 0,0.3774 -0.0689,0.7242 -0.2091,1.0378 -0.1403,0.3137 -0.3443,0.584 -0.612,0.8135 0.5763,0.1887 1.0276,0.5023 1.3489,0.9409 z m -5.3779,-4.029 v 2.6545 h 1.7442 c 0.487,0 0.8619,-0.1224 1.1271,-0.3646 0.2626,-0.2448 0.3952,-0.5687 0.3952,-0.9766 0,-0.408 -0.1326,-0.7293 -0.3952,-0.9614 -0.2627,-0.2346 -0.6401,-0.3519 -1.1271,-0.3519 z m 3.8122,6.6605 c 0.3035,-0.2728 0.4539,-0.6426 0.4539,-1.1118 0,-0.4692 -0.153,-0.8415 -0.4539,-1.1194 -0.3034,-0.2779 -0.7293,-0.4182 -1.275,-0.4182 h -2.5346 v 3.0574 h 2.5346 c 0.5457,0 0.9716,-0.1377 1.275,-0.4105 z"
     fill="#fbfcff"
     id="path6" />
  <path
     d="m 52.812475,5.706975 h 6.4745 v 1.4178 h -4.894 v 2.5219 h 3.685 v 1.3719 h -3.685 v 3.1186 h 5.072 v 1.4178 h -6.6525 z"
     fill="#fbfcff"
     id="path7" />
  <path
     d="m 66.968975,11.584675 v 3.9677 h -1.581 v -3.9677 l -3.401,-5.8777 h 1.759 l 2.433,4.2814 2.445,-4.2814 h 1.745 l -3.402,5.8777 z"
     fill="#fbfcff"
     id="path8" />
  <path
     d="m 75.044975,15.044675 c -0.79,-0.4462 -1.415,-1.0582 -1.871,-1.8359 -0.457,-0.7752 -0.686,-1.6346 -0.686,-2.5806 0,-0.946 0.232,-1.8054 0.693,-2.5806 0.462,-0.7751 1.087,-1.3871 1.872,-1.8359 0.785,-0.4463 1.65,-0.6707 2.596,-0.6707 0.946,0 1.8,0.2244 2.596,0.6707 0.795,0.4462 1.425,1.0582 1.887,1.8359 0.461,0.7752 0.693,1.6371 0.693,2.5806 0,0.9435 -0.232,1.8054 -0.693,2.5806 -0.462,0.7751 -1.092,1.3871 -1.887,1.8359 -0.796,0.4463 -1.66,0.6707 -2.596,0.6707 -0.936,0 -1.813,-0.2244 -2.604,-0.6707 z m 4.425,-1.2444 c 0.538,-0.3136 0.958,-0.7471 1.267,-1.3055 0.308,-0.5559 0.461,-1.1832 0.461,-1.8794 0,-0.6961 -0.155,-1.2928 -0.461,-1.8487 -0.309,-0.5559 -0.732,-0.9919 -1.267,-1.3056 -0.536,-0.3136 -1.14,-0.4691 -1.806,-0.4691 -0.665,0 -1.282,0.1555 -1.82,0.4691 -0.538,0.3137 -0.957,0.7446 -1.26,1.298 -0.304,0.5533 -0.454,1.1704 -0.454,1.8563 0,0.686 0.15,1.3235 0.454,1.8794 0.303,0.5559 0.724,0.9919 1.26,1.3055 0.538,0.3137 1.142,0.4692 1.82,0.4692 0.679,0 1.268,-0.1555 1.806,-0.4692 z"
     fill="#fbfcff"
     id="path9" />
  <path
     d="m 94.325975,5.706675 v 10.0086 h -0.539 l -5.997,-6.8314 v 6.6682 h -1.581 v -10.0086 h 0.551 l 5.982,6.8033 v -6.6401 h 1.581 z"
     fill="#fbfcff"
     id="path10" />
  <path
     d="m 98.308975,5.706975 h 3.087995 c 1.07301,0 2.01401,0.2066 2.82,0.6197 0.80601,0.4131 1.43,0.9894 1.87201,1.7314 0.441,0.742 0.663,1.5937 0.663,2.5576 0,0.9639 -0.222,1.8054 -0.663,2.55 -0.444,0.7446 -1.069,1.3311 -1.88,1.7518 -0.811,0.4233 -1.74701,0.6349 -2.81201,0.6349 h -3.087995 z m 3.072005,8.4277 c 0.755,0 1.418,-0.1479 1.984,-0.4463 0.566,-0.2983 1.002,-0.7165 1.306,-1.252 0.303,-0.5381 0.454,-1.1424 0.454,-1.8207 0,-0.6783 -0.153,-1.3056 -0.454,-1.8283 -0.304,-0.5227 -0.737,-0.9282 -1.298,-1.2163 -0.561,-0.2882 -1.227,-0.4335 -1.992,-0.4335 h -1.491005 v 6.9971 z"
     fill="#fbfcff"
     id="path11" />
  <path
     d="m 42.102475,19.451175 h 6.4744 v 1.4178 h -4.8934 v 2.5219 h 3.6847 v 1.3719 h -3.6847 v 3.1186 h 5.0719 v 1.4177 h -6.6529 v -9.8454 z"
     fill="#fbfcff"
     id="path12" />
  <path
     d="m 57.748975,29.296575 -2.387,-3.6694 -2.3714,3.6694 h -1.8207 l 3.3281,-5.026 -3.119,-4.8194 h 1.821 l 2.177,3.4756 2.147,-3.4756 h 1.806 l -3.058,4.8194 3.282,5.026 z"
     fill="#fbfcff"
     id="path13" />
  <path
     d="m 62.626975,19.450775 h 3.595 c 0.656,0 1.24,0.1275 1.745,0.3799 0.507,0.2525 0.9,0.6095 1.178,1.0659 0.278,0.4565 0.418,0.9792 0.418,1.5657 0,0.5865 -0.14,1.1092 -0.418,1.5657 -0.278,0.4564 -0.671,0.816 -1.178,1.0735 -0.508,0.2576 -1.089,0.3876 -1.745,0.3876 h -2.014 v 3.8046 h -1.581 v -9.8454 z m 3.565,4.6384 c 0.556,0 0.987,-0.1454 1.29,-0.4412 0.304,-0.2932 0.454,-0.6834 0.454,-1.1704 0,-0.487 -0.15,-0.8797 -0.454,-1.1781 -0.303,-0.2983 -0.734,-0.4462 -1.29,-0.4462 h -1.984 v 3.2359 z"
     fill="#fbfcff"
     id="path14" />
  <path
     d="m 72.815975,19.451175 h 6.475 v 1.4178 h -4.894 v 2.5219 h 3.685 v 1.3719 h -3.685 v 3.1186 h 5.072 v 1.4177 h -6.653 v -9.8454 z"
     fill="#fbfcff"
     id="path15" />
  <path
     d="m 88.985975,29.296575 -2.805,-3.8046 h -1.805 v 3.8046 h -1.581 v -9.8454 h 3.595 c 0.656,0 1.24,0.1275 1.745,0.3799 0.507,0.2525 0.9,0.6095 1.178,1.0659 0.278,0.4565 0.418,0.9792 0.418,1.5657 0,0.6477 -0.168,1.2138 -0.508,1.7008 -0.339,0.4871 -0.8,0.8466 -1.387,1.0735 l 2.953,4.057 h -1.805 z m -4.61,-5.207 h 1.984 c 0.545,0 0.974,-0.1479 1.282,-0.4463 0.309,-0.2983 0.462,-0.6859 0.462,-1.1628 0,-0.4768 -0.156,-0.8797 -0.462,-1.178 -0.308,-0.2984 -0.737,-0.4463 -1.282,-0.4463 h -1.984 v 3.2359 z"
     fill="#fbfcff"
     id="path16" />
  <path
     d="m 93.697975,19.451175 h 1.581 v 9.8454 h -1.581 z"
     fill="#fbfcff"
     id="path17" />
  <path
     d="m 99.246975,19.451175 h 6.474005 v 1.4178 h -4.893 v 2.5219 h 3.685 v 1.3719 h -3.685 v 3.1186 h 5.072 v 1.4177 h -6.653005 v -9.8454 z"
     fill="#fbfcff"
     id="path18" />
  <path
     d="m 117.34198,19.451275 v 10.0086 h -0.538 l -5.998,-6.8314 v 6.6682 h -1.581 v -10.0086 h 0.551 l 5.982,6.8033 v -6.6376 h 1.581 z"
     fill="#fbfcff"
     id="path19" />
  <path
     d="m 123.30097,28.789375 c -0.791,-0.4488 -1.418,-1.0583 -1.87899,-1.836 -0.462,-0.7752 -0.694,-1.6371 -0.694,-2.5806 0,-0.9435 0.232,-1.8053 0.694,-2.5805 0.461,-0.7752 1.08799,-1.3872 1.87899,-1.836 0.79,-0.4488 1.65701,-0.6706 2.60301,-0.6706 0.946,0 1.729,0.204 2.46899,0.6119 0.739,0.408 1.326,0.9588 1.752,1.655 l -1.19399,0.8797 c -0.349,-0.5457 -0.77501,-0.9664 -1.282,-1.2597 -0.50801,-0.2932 -1.084,-0.4411 -1.732,-0.4411 -0.647,0 -1.27001,0.1555 -1.813,0.4692 -0.543,0.3136 -0.966,0.7497 -1.275,1.3056 -0.308,0.5558 -0.461,1.178 -0.461,1.864 0,0.6859 0.15299,1.3081 0.461,1.864 0.309,0.5559 0.735,0.9919 1.275,1.3056 0.543,0.3136 1.145,0.4692 1.813,0.4692 0.668,0 1.22399,-0.1479 1.732,-0.4412 0.50699,-0.2932 0.93499,-0.714 1.282,-1.2597 l 1.19399,0.8798 c -0.419,0.6961 -0.997,1.2469 -1.739,1.6549 -0.74199,0.408 -1.56899,0.612 -2.484,0.612 -0.916,0 -1.81299,-0.2244 -2.604,-0.6706 z"
     fill="#fbfcff"
     id="path20" />
  <path
     d="m 133.51097,19.451175 h 6.474 v 1.4178 h -4.893 v 2.5219 h 3.684 v 1.3719 h -3.684 v 3.1186 h 5.072 v 1.4177 h -6.653 v -9.8454 z"
     fill="#fbfcff"
     id="path21" />
  <path
     d="m 144.32497,28.893775 c -0.647,-0.3774 -1.157,-0.9001 -1.537,-1.5657 l 1.119,-0.8491 c 0.329,0.4768 0.699,0.8568 1.112,1.1424 0.413,0.283 0.903,0.4258 1.469,0.4258 0.507,0 0.918,-0.1249 1.231,-0.3723 0.314,-0.2473 0.469,-0.5814 0.469,-0.9996 0,-0.3468 -0.112,-0.6222 -0.336,-0.8211 -0.225,-0.1989 -0.594,-0.4181 -1.112,-0.6553 l -1.089,-0.5074 c -0.716,-0.329 -1.277,-0.7013 -1.685,-1.1195 -0.408,-0.4182 -0.612,-0.9537 -0.612,-1.6115 0,-0.5279 0.14,-0.9945 0.418,-1.4025 0.278,-0.408 0.653,-0.7217 1.127,-0.941 0.472,-0.2193 0.992,-0.3289 1.558,-0.3289 0.696,0 1.323,0.1606 1.879,0.4845 0.556,0.3238 0.99,0.7471 1.298,1.275 l -1.104,0.8491 c -0.257,-0.3876 -0.563,-0.6834 -0.918,-0.8874 -0.352,-0.204 -0.739,-0.306 -1.155,-0.306 -0.416,0 -0.77,0.102 -1.058,0.306 -0.288,0.204 -0.434,0.4998 -0.434,0.8874 0,0.2397 0.054,0.4386 0.163,0.5967 0.11,0.1581 0.253,0.2907 0.434,0.3952 0.181,0.1046 0.439,0.2423 0.775,0.4106 l 1.104,0.5074 c 0.796,0.3672 1.387,0.765 1.775,1.1934 0.388,0.4284 0.581,0.9639 0.581,1.6116 0,0.5661 -0.142,1.0659 -0.425,1.4994 -0.283,0.4335 -0.676,0.7649 -1.178,0.9995 -0.503,0.2346 -1.066,0.3494 -1.694,0.3494 -0.805,0 -1.532,-0.1887 -2.177,-0.5661 z"
     fill="#fbfcff"
     id="path22" />
</svg>
